<?xml version="1.0" encoding="UTF-8" standalone="no"?>
<svg
   xmlns:dc="http://purl.org/dc/elements/1.1/"
   xmlns:cc="http://creativecommons.org/ns#"
   xmlns:rdf="http://www.w3.org/1999/02/22-rdf-syntax-ns#"
   xmlns:svg="http://www.w3.org/2000/svg"
   xmlns="http://www.w3.org/2000/svg"
   style="overflow:visible"
   version="1.1"
   x="0px"
   y="0px"
   width="506.70374"
   height="417.53943"
   viewBox="101 0 506.70374 417.53943"
   overflow="visible"
   enable-background="new 101 0 800 800"
   xml:space="preserve"
   id="svg40"><metadata
   id="metadata44"><rdf:RDF><cc:Work
       rdf:about=""><dc:format>image/svg+xml</dc:format><dc:type
         rdf:resource="http://purl.org/dc/dcmitype/StillImage" /><dc:title></dc:title></cc:Work></rdf:RDF></metadata>
<defs
   id="defs2">
</defs>



<path
   d="m 607.70372,112.63 h -110.109 V 64.136997 h -43.891 V 0 h -198.66 v 63.353997 c -13.091,1.824 -29.516,0.262 -43.89,0.783 V 111.848 c -35.164,1.825 -73.664,0.261 -110.11,0.782 0.10598,101.63688 -0.33255,203.27437 0.34151,304.90943 168.74511,-0.25777 506.23571,-0.35059 506.23571,-0.35059 l 0.0828,-84.77484 c 0,0 -0.001,-144.649 0,-219.784 z m -494.34,291.75164 V 125.927 h 110.11 V 77.431997 h 43.89 V 12.514 h 173.25 c 1.787,20.083997 0.263,43.532997 0.771,64.917997 h 43.89 V 125.927 h 109.34 c -0.001,74.598 0,278.65332 0,278.65332 z"
   id="path14"
   style="clip-rule:evenodd;fill:#ffffff;fill-rule:evenodd" />

<path
   d="M 197.29372,100.898 V 19.553 h -96.25 v 81.34347 c 32.08333,0.003 64.16667,0.002 96.25,0.002 z m -85.47,-10.169003 -0.47038,-61.008 h 75.93038 v 61.008 z"
   id="path18"
   style="clip-rule:evenodd;fill:#ffffff;fill-rule:evenodd" />






<path
   d="M 606.75147,99.781047 V 18.43605 h -96.25 v 81.343467 c 32.08333,0.003 64.16667,0.002 96.25,0.002 z m -85.47,-10.169 -0.47038,-61.008 h 75.93038 v 61.008 z"
   id="path18-3"
   style="clip-rule:evenodd;fill:#ffffff;fill-rule:evenodd" /></svg>